<svg width="129" height="129" viewBox="0 0 129 129" fill="none" xmlns="http://www.w3.org/2000/svg">
<rect width="129" height="129" rx="17.341" fill="#FF763B"/>
<path d="M45.2559 18.3987C49.1101 18.3988 52.2344 21.523 52.2344 25.3772C52.2343 29.2313 49.11 32.3556 45.2559 32.3557C41.4017 32.3557 38.2775 29.2313 38.2774 25.3772C38.2774 21.523 41.4017 18.3987 45.2559 18.3987Z" stroke="#210E01" stroke-width="1.26885"/>
<path d="M84.1674 96.2216C88.0215 96.2217 91.1459 99.346 91.1459 103.2C91.1458 107.054 88.0215 110.179 84.1674 110.179C80.3132 110.179 77.189 107.054 77.1889 103.2C77.1889 99.3459 80.3132 96.2216 84.1674 96.2216Z" stroke="#210E01" stroke-width="1.26885"/>
<path d="M45.2559 96.2216C49.1101 96.2217 52.2344 99.346 52.2344 103.2C52.2343 107.054 49.11 110.179 45.2559 110.179C41.4017 110.179 38.2775 107.054 38.2774 103.2C38.2774 99.3459 41.4017 96.2216 45.2559 96.2216Z" stroke="#210E01" stroke-width="1.26885"/>
<path d="M25.8002 96.2216C29.6543 96.2217 32.7787 99.346 32.7787 103.2C32.7786 107.054 29.6543 110.179 25.8002 110.179C21.946 110.179 18.8217 107.054 18.8217 103.2C18.8217 99.3459 21.9459 96.2216 25.8002 96.2216Z" stroke="#210E01" stroke-width="1.26885"/>
<path d="M25.8002 76.7659C29.6543 76.766 32.7787 79.8903 32.7787 83.7444C32.7786 87.5985 29.6543 90.7229 25.8002 90.723C21.946 90.723 18.8217 87.5986 18.8217 83.7444C18.8217 79.8902 21.9459 76.7659 25.8002 76.7659Z" stroke="#210E01" stroke-width="1.26885"/>
<path d="M84.1674 18.3987C88.0215 18.3988 91.1459 21.523 91.1459 25.3772C91.1458 29.2313 88.0215 32.3556 84.1674 32.3557C80.3132 32.3557 77.189 29.2313 77.1889 25.3772C77.1889 21.523 80.3132 18.3987 84.1674 18.3987Z" stroke="#210E01" stroke-width="1.26885"/>
<path d="M103.623 76.7659C107.477 76.766 110.602 79.8903 110.602 83.7444C110.602 87.5985 107.477 90.7229 103.623 90.723C99.7689 90.723 96.6447 87.5986 96.6446 83.7444C96.6446 79.8902 99.7689 76.7659 103.623 76.7659Z" stroke="#210E01" stroke-width="1.26885"/>
<path d="M103.623 37.8544C107.477 37.8545 110.602 40.9788 110.602 44.8329C110.602 48.687 107.477 51.8114 103.623 51.8115C99.7689 51.8115 96.6447 48.6871 96.6446 44.8329C96.6446 40.9787 99.7689 37.8544 103.623 37.8544Z" stroke="#210E01" stroke-width="1.26885"/>
<path d="M103.623 18.3987C107.477 18.3988 110.602 21.523 110.602 25.3772C110.602 29.2313 107.477 32.3556 103.623 32.3557C99.7689 32.3557 96.6447 29.2313 96.6446 25.3772C96.6446 21.523 99.7689 18.3987 103.623 18.3987Z" stroke="#210E01" stroke-width="1.26885"/>
<path d="M25.8002 37.8544C29.6543 37.8545 32.7787 40.9788 32.7787 44.8329C32.7786 48.687 29.6543 51.8114 25.8002 51.8115C21.946 51.8115 18.8217 48.6871 18.8217 44.8329C18.8217 40.9787 21.9459 37.8544 25.8002 37.8544Z" stroke="#210E01" stroke-width="1.26885"/>
<path d="M25.8002 18.3987C29.6543 18.3988 32.7787 21.523 32.7787 25.3772C32.7786 29.2313 29.6543 32.3556 25.8002 32.3557C21.946 32.3557 18.8217 29.2313 18.8217 25.3772C18.8217 21.523 21.9459 18.3987 25.8002 18.3987Z" stroke="#210E01" stroke-width="1.26885"/>
<path d="M103.623 96.2216C107.477 96.2217 110.602 99.346 110.602 103.2C110.602 107.054 107.477 110.179 103.623 110.179C99.7689 110.179 96.6447 107.054 96.6446 103.2C96.6446 99.3459 99.7689 96.2216 103.623 96.2216Z" stroke="#210E01" stroke-width="1.26885"/>
<path d="M64.7113 17.764C68.9159 17.764 72.3246 21.1727 72.3246 25.3773C72.3245 27.7823 71.2089 29.926 69.4671 31.3207C68.2742 32.2758 67.2494 33.5766 67.2494 35.1048C67.2494 36.6329 68.2742 37.9337 69.4671 38.8888C69.7454 39.1117 70.0078 39.3537 70.2522 39.6129C71.38 40.809 72.7954 41.8724 74.4393 41.8724C76.0833 41.8724 77.4987 40.8091 78.6262 39.6126C80.0144 38.1395 81.9834 37.22 84.1674 37.22C88.3718 37.2201 91.7804 40.6279 91.7806 44.8323C91.7806 46.7345 92.0213 48.7839 93.3663 50.1289L98.3253 55.088C99.6706 56.4333 101.721 56.6751 103.623 56.6751C107.828 56.6754 111.236 60.084 111.236 64.2884C111.236 68.4928 107.828 71.9014 103.623 71.9017C102.019 71.9017 100.323 72.1773 99.189 73.3117L93.1906 79.31C92.0563 80.4444 91.7806 82.1403 91.7806 83.7444C91.7805 87.9489 88.3718 91.3577 84.1674 91.3577C82.5632 91.3577 80.8673 91.6334 79.733 92.7677L73.7339 98.7668C72.6 99.9007 72.3245 101.596 72.3246 103.2C72.3246 107.404 68.9159 110.813 64.7113 110.813C60.5068 110.813 57.098 107.404 57.098 103.2C57.0981 101.661 56.8197 100.042 55.7321 98.9547L49.4995 92.7221C48.4123 91.6349 46.7939 91.3576 45.2562 91.3577C41.0517 91.3577 37.6431 87.9489 37.6429 83.7444C37.6429 82.2059 37.3634 80.586 36.2754 79.498L30.0435 73.2661C28.9562 72.1788 27.3378 71.9016 25.8002 71.9017C21.5956 71.9017 18.1869 68.493 18.1869 64.2884C18.1869 60.0838 21.5956 56.6751 25.8002 56.6751C27.648 56.6752 29.6324 56.4239 30.939 55.1173L36.0836 49.9727C37.3906 48.6658 37.6429 46.6806 37.6429 44.8323C37.6431 40.6279 41.0517 37.22 45.2562 37.22C47.4403 37.2202 49.4095 38.1398 50.7977 39.613C51.9249 40.8092 53.3401 41.8724 54.9838 41.8724C56.6274 41.8724 58.0426 40.8092 59.1702 39.6134C59.4149 39.3539 59.6776 39.1116 59.9563 38.8885C61.1494 37.9336 62.1742 36.6329 62.1742 35.1048C62.1742 33.5767 61.1494 32.2759 59.9564 31.3209C58.2142 29.9264 57.0981 27.7826 57.098 25.3773C57.098 21.1727 60.5068 17.7641 64.7113 17.764ZM54.9832 47.3704C53.4554 47.3704 52.1549 48.395 51.2 49.5877C49.8054 51.3297 47.6615 52.4455 45.2562 52.4456C43.2872 52.4456 41.1562 52.6756 39.7638 54.0679L35.0357 58.796C33.6434 60.1883 33.4134 62.3194 33.4135 64.2884C33.4135 66.5407 33.5797 69.0259 35.1723 70.6185L38.9246 74.3708C40.5175 75.9638 43.0035 76.1312 45.2562 76.1312C49.4606 76.1314 52.8685 79.54 52.8685 83.7444C52.8685 85.9962 53.0345 88.4807 54.6267 90.0729L58.3814 93.8276C59.9739 95.4201 62.4591 95.5873 64.7113 95.5872C66.9063 95.5872 69.3186 95.4057 70.8707 93.8536L74.822 89.9024C76.3737 88.3506 76.5541 85.939 76.5541 83.7444C76.5541 79.5398 79.9627 76.1312 84.1674 76.1312C86.3619 76.1312 88.7735 75.9508 90.3253 74.399L94.2765 70.4478C95.8286 68.8957 96.0101 66.4834 96.0101 64.2884C96.0101 62.3734 95.77 60.3081 94.4159 58.954L89.5003 54.0383C88.1465 52.6845 86.0819 52.4456 84.1674 52.4456C81.7619 52.4456 79.6175 51.3299 78.2226 49.5877C77.2677 48.3951 75.9672 47.3704 74.4393 47.3704C72.9115 47.3704 71.6109 48.3951 70.656 49.5877C69.2612 51.3299 67.1168 52.4456 64.7113 52.4456C62.3059 52.4456 60.1615 51.3299 58.7666 49.5878C57.8117 48.3951 56.5111 47.3704 54.9832 47.3704ZM64.7113 76.1312C68.9159 76.1312 72.3246 79.5398 72.3246 83.7444C72.3244 87.9489 68.9158 91.3577 64.7113 91.3577C60.5069 91.3576 57.0982 87.9489 57.098 83.7444C57.098 79.5399 60.5068 76.1313 64.7113 76.1312ZM45.2562 56.6751C49.4606 56.6754 52.8685 60.084 52.8685 64.2884C52.8685 68.4928 49.4606 71.9014 45.2562 71.9017C41.0516 71.9017 37.6429 68.493 37.6429 64.2884C37.643 60.0838 41.0516 56.6751 45.2562 56.6751ZM64.7113 56.6751C68.9159 56.6751 72.3246 60.0838 72.3246 64.2884C72.3246 68.493 68.9159 71.9017 64.7113 71.9017C60.5068 71.9016 57.098 68.4929 57.098 64.2884C57.0981 60.0839 60.5068 56.6752 64.7113 56.6751ZM84.1674 56.6751C88.3719 56.6752 91.7806 60.0839 91.7806 64.2884C91.7806 68.493 88.3719 71.9016 84.1674 71.9017C79.9627 71.9017 76.5541 68.493 76.5541 64.2884C76.5541 60.0838 79.9628 56.6751 84.1674 56.6751Z" fill="#210E01"/>
</svg>
